<?xml version="1.0" encoding="UTF-8" standalone="no"?>
<!DOCTYPE svg PUBLIC "-//W3C//DTD SVG 1.1//EN" "http://www.w3.org/Graphics/SVG/1.1/DTD/svg11.dtd">
<svg width="100%" height="100%" viewBox="0 0 48 42" version="1.1" xmlns="http://www.w3.org/2000/svg" xmlns:xlink="http://www.w3.org/1999/xlink" xml:space="preserve" xmlns:serif="http://www.serif.com/" style="fill-rule:evenodd;clip-rule:evenodd;stroke-linecap:round;stroke-linejoin:round;stroke-miterlimit:1.5;">
    <g transform="matrix(-1.68747e-16,0.918616,-0.918616,-1.68747e-16,58.4821,-12.9105)">
        <path d="M36.425,13.425L57.708,25.713L57.708,50.287L36.425,62.575L15.143,50.287L15.143,25.713L36.425,13.425Z" style="fill:none;stroke:rgb(87,217,193);stroke-width:2.18px;"/>
    </g>
    <g transform="matrix(2.1889,0,0,2.1889,-93.8984,-78.2571)">
        <g transform="matrix(12,0,0,12,50.0871,49.45)">
            <path d="M0.385,-0.187C0.385,-0.213 0.378,-0.235 0.363,-0.251C0.347,-0.268 0.321,-0.284 0.285,-0.298C0.212,-0.324 0.159,-0.354 0.124,-0.386C0.089,-0.418 0.071,-0.464 0.071,-0.523C0.071,-0.578 0.089,-0.622 0.124,-0.657C0.159,-0.692 0.206,-0.713 0.265,-0.719L0.265,-0.824L0.343,-0.824L0.343,-0.718C0.4,-0.71 0.445,-0.686 0.478,-0.646C0.51,-0.607 0.527,-0.556 0.526,-0.493L0.524,-0.491L0.385,-0.491C0.385,-0.529 0.377,-0.559 0.362,-0.58C0.346,-0.6 0.324,-0.611 0.297,-0.611C0.269,-0.611 0.248,-0.603 0.234,-0.587C0.221,-0.571 0.214,-0.549 0.214,-0.522C0.214,-0.497 0.221,-0.476 0.236,-0.461C0.25,-0.445 0.277,-0.429 0.315,-0.414C0.387,-0.386 0.441,-0.355 0.475,-0.323C0.51,-0.291 0.527,-0.246 0.527,-0.188C0.527,-0.131 0.51,-0.086 0.475,-0.052C0.44,-0.018 0.393,0.002 0.333,0.008L0.333,0.104L0.255,0.104L0.255,0.008C0.194,0.002 0.144,-0.019 0.104,-0.056C0.065,-0.093 0.046,-0.148 0.047,-0.219L0.048,-0.222L0.187,-0.222C0.187,-0.178 0.197,-0.147 0.217,-0.128C0.237,-0.109 0.263,-0.1 0.293,-0.1C0.323,-0.1 0.346,-0.108 0.362,-0.123C0.377,-0.139 0.385,-0.16 0.385,-0.187Z" style="fill:rgb(87,217,193);fill-rule:nonzero;"/>
        </g>
    </g>
</svg>
